<svg width="126" height="26" viewBox="0 0 126 26" fill="none" xmlns="http://www.w3.org/2000/svg">
<path d="M6.144 25L0.576 1.64H6.72L10.912 21L9.92 20.264H12.512L11.392 21L14.56 2.472H19.392L15.008 25H6.144ZM20.032 25L15.328 2.472H20.416L24.128 21L23.008 20.264H25.44L24.608 21L28.224 1.64H33.984L29.088 25H20.032ZM37.1315 25V7.336H42.9555V25H37.1315ZM34.8915 11.56V7.336H42.9555V11.56H34.8915ZM39.5315 5.928C38.4648 5.928 37.6755 5.66133 37.1635 5.128C36.6728 4.57333 36.4275 3.86933 36.4275 3.016C36.4275 2.16267 36.6728 1.46933 37.1635 0.935999C37.6755 0.381332 38.4542 0.103998 39.4995 0.103998C40.5662 0.103998 41.3448 0.381332 41.8355 0.935999C42.3262 1.46933 42.5715 2.16267 42.5715 3.016C42.5715 3.86933 42.3262 4.57333 41.8355 5.128C41.3448 5.66133 40.5768 5.928 39.5315 5.928ZM47.493 25V1.64H53.317V25H47.493ZM45.509 5.864V1.64H53.317V5.864H45.509ZM57.868 25V1.64H63.692V25H57.868ZM55.884 5.864V1.64H63.692V5.864H55.884ZM68.819 25V7.336H74.643V25H68.819ZM66.579 11.56V7.336H74.643V11.56H66.579ZM71.219 5.928C70.1523 5.928 69.363 5.66133 68.851 5.128C68.3603 4.57333 68.115 3.86933 68.115 3.016C68.115 2.16267 68.3603 1.46933 68.851 0.935999C69.363 0.381332 70.1417 0.103998 71.187 0.103998C72.2537 0.103998 73.0323 0.381332 73.523 0.935999C74.0137 1.46933 74.259 2.16267 74.259 3.016C74.259 3.86933 74.0137 4.57333 73.523 5.128C73.0323 5.66133 72.2643 5.928 71.219 5.928ZM89.6125 25V19.816H88.6525V14.28C88.6525 13.4693 88.4605 12.872 88.0765 12.488C87.7138 12.0827 87.1058 11.88 86.2525 11.88C85.8472 11.88 85.2498 11.8907 84.4605 11.912C83.6712 11.9333 82.8392 11.9653 81.9645 12.008C81.0898 12.0507 80.2898 12.0933 79.5645 12.136V7.272C80.0765 7.22933 80.6845 7.18667 81.3885 7.144C82.0925 7.10133 82.8178 7.06933 83.5645 7.048C84.3325 7.02667 85.0365 7.016 85.6765 7.016C87.4898 7.016 89.0258 7.28267 90.2845 7.816C91.5645 8.34933 92.5352 9.14933 93.1965 10.216C93.8792 11.2827 94.2205 12.6373 94.2205 14.28V25H89.6125ZM84.0125 25.448C82.7752 25.448 81.6765 25.224 80.7165 24.776C79.7565 24.328 78.9992 23.688 78.4445 22.856C77.9112 22.0027 77.6445 20.9893 77.6445 19.816C77.6445 18.4933 77.9965 17.4267 78.7005 16.616C79.4045 15.784 80.3752 15.176 81.6125 14.792C82.8498 14.408 84.2685 14.216 85.8685 14.216H89.2925V17.224H85.8685C85.0792 17.224 84.4712 17.4267 84.0445 17.832C83.6178 18.216 83.4045 18.7387 83.4045 19.4C83.4045 20.04 83.6178 20.5627 84.0445 20.968C84.4712 21.352 85.0792 21.544 85.8685 21.544C86.3805 21.544 86.8285 21.4587 87.2125 21.288C87.6178 21.096 87.9485 20.776 88.2045 20.328C88.4605 19.88 88.6098 19.2613 88.6525 18.472L89.9965 19.752C89.8898 20.968 89.5912 22.0027 89.1005 22.856C88.6312 23.688 87.9698 24.328 87.1165 24.776C86.2845 25.224 85.2498 25.448 84.0125 25.448ZM98.112 25V7.336H102.72V14.952H102.464C102.464 13.1173 102.688 11.6027 103.136 10.408C103.605 9.192 104.288 8.28533 105.184 7.688C106.08 7.06933 107.179 6.76 108.48 6.76H108.736C110.059 6.76 111.157 7.06933 112.032 7.688C112.928 8.28533 113.6 9.192 114.048 10.408C114.517 11.6027 114.752 13.1173 114.752 14.952H113.408C113.408 13.1173 113.632 11.6027 114.08 10.408C114.549 9.192 115.232 8.28533 116.128 7.688C117.024 7.06933 118.123 6.76 119.424 6.76H119.68C121.003 6.76 122.112 7.06933 123.008 7.688C123.925 8.28533 124.619 9.192 125.088 10.408C125.579 11.6027 125.824 13.1173 125.824 14.952V25H120V14.792C120 13.9813 119.776 13.3093 119.328 12.776C118.901 12.2213 118.283 11.944 117.472 11.944C116.661 11.944 116.021 12.2213 115.552 12.776C115.104 13.3093 114.88 14.0027 114.88 14.856V25H109.056V14.792C109.056 13.9813 108.832 13.3093 108.384 12.776C107.957 12.2213 107.339 11.944 106.528 11.944C105.717 11.944 105.077 12.2213 104.608 12.776C104.16 13.3093 103.936 14.0027 103.936 14.856V25H98.112Z" fill="black"/>
</svg>
